<svg width="45" height="48" viewBox="0 0 45 48" fill="none" xmlns="http://www.w3.org/2000/svg">
<rect width="44.4532" height="36.4138" rx="8" fill="#C9E5FE"/>
<rect y="13.0049" width="44.4532" height="34.9951" rx="8" fill="#0082FC"/>
<ellipse cx="15.7241" cy="7.44828" rx="2.00985" ry="2.00985" fill="#0082FC"/>
<ellipse cx="28.9655" cy="7.44828" rx="2.00985" ry="2.00985" fill="#0082FC"/>
<path d="M31.0668 17.6297C32.02 17.5165 32.8995 18.2008 32.8562 19.1597C32.8154 20.0626 32.6596 20.9591 32.3909 21.827C31.9503 23.2502 31.2157 24.5649 30.2347 25.6861C29.2537 26.8074 28.0482 27.7101 26.6963 28.3359C25.3443 28.9617 23.876 29.2966 22.3863 29.319C20.8967 29.3414 19.419 29.0507 18.0489 28.4657C16.6787 27.8808 15.4467 27.0147 14.4325 25.9234C13.4183 24.8321 12.6446 23.54 12.1614 22.1308C11.8667 21.2713 11.6841 20.3799 11.6162 19.4786C11.5442 18.5214 12.4027 17.811 13.3589 17.8956C14.315 17.9802 14.9999 18.8331 15.1475 19.7816C15.212 20.1958 15.3129 20.6047 15.4496 21.0034C15.7749 21.9522 16.2959 22.8222 16.9787 23.557C17.6616 24.2917 18.4912 24.8749 19.4137 25.2688C20.3362 25.6626 21.3312 25.8583 22.3342 25.8433C23.3371 25.8282 24.3258 25.6027 25.2361 25.1814C26.1464 24.76 26.958 24.1522 27.6185 23.3972C28.279 22.6423 28.7736 21.7571 29.0703 20.7989C29.195 20.3963 29.2836 19.9845 29.3356 19.5685C29.4546 18.6161 30.1136 17.743 31.0668 17.6297Z" fill="white"/>
</svg>
